<?xml version="1.0" encoding="utf-8"?>
<!-- Generator: Adobe Illustrator 22.1.0, SVG Export Plug-In . SVG Version: 6.00 Build 0)  -->
<svg version="1.1" id="Layer_1" xmlns="http://www.w3.org/2000/svg" xmlns:xlink="http://www.w3.org/1999/xlink" x="0px" y="0px"
	 viewBox="0 0 1366 768" style="enable-background:new 0 0 1366 768;" xml:space="preserve">
<style type="text/css">
	.st0{stroke:#FF0000;stroke-miterlimit:10;}
	.st1{fill:none;stroke:#FF0000;stroke-miterlimit:10;}
	.st2{fill:#FFFFFF;stroke:#FF0000;stroke-miterlimit:10;}
	.st3{fill:none;stroke:#FF0000;stroke-width:0.25;stroke-miterlimit:10;}
</style>
<polygon class="st0" points="444,467 444,560.1 713,559.8 794.6,484.1 636,308.5 "/>
<g>
	<path d="M604.4,408.4c4,1.7,7.8,2.9,11.7-0.9c2.6-2.5,6-1.7,8.6,0.6c3.7,3.2,7.2,1.9,10-1c4.1-4.3,9.2-6.3,14.9-7.3
		c5.1-0.9,10.2-1.8,15-3.5c2.2-0.8,4.5-3.4,5.3-5.8c3.1-8.6,5.8-17.3,8.2-26.2c0.5-1.9,0-5-1.3-6.5c-6.6-7.9-13.5-15.6-20.4-23.3
		c-6.7-7.5-13.5-15-20.5-22.8c-24,20-47.6,39.6-70.9,59c3,8,6.1,15.4,8.5,22.9c0.9,2.8,2.4,3.8,5,4.7c8.7,3.1,17.3,6.7,26,10.1
		c-4.5,3.6-7.7,8-8.6,14c-0.9,5.8-4.5,9.8-10.4,11.4c-1.8-7.6,8.1-7.1,9.3-13.3c-12.8,2.4-13.9,12.9-17.3,21.7
		c-0.4,1,0.4,2.5,0.6,3.7c0.5,0,1,0,1.5,0c1.4-3.1,2.8-6.2,3.8-8.5c2.2-0.3,4.1-0.1,5.6-0.8c5.4-2.2,8.3-6.7,9.4-12.1
		c1.1-5.6,2.9-10.5,8.2-13.3C605.9,410.1,605.1,409.3,604.4,408.4z M709,525.9c1.2,0.7,2.4,1.4,3.9,2.3c-1.9-11.5,1-15.6,12.2-18.2
		c0.8-0.2,1.6-0.6,2.4-0.5c4,0.3,4.9-2.1,5.4-5.4c1.1-7.7,1.3-7.7,8.8-8.7c0.7-0.1,1.3-0.3,2-0.2c3,0.3,3.7-1.4,4.4-4
		c1-3.9,2.3-8.2,4.7-11.3c4.8-6.4,14.9-4.3,17.5,3.3c2.8,8-1.7,14.4-12.2,15.7c-4.9,0.6-6.7,2.7-7,7c-0.3,5.4-3,7.6-8.3,7.3
		c-3.9-0.2-5.9,1.3-7.1,5.6c-1.2,4.5-3.7,9.6-7.3,12.4c-2.7,2.2-7.8,1.4-12,1.9c-0.3,1.1-0.7,3.2-1.5,5.2c-0.8,2-2.2,3.8-2.7,5.9
		c-1.2,5.2-6,6.3-9.4,9c-4.2,3.3-8.6,3.2-13.1,0.5c-0.5-0.3-1.5,0.1-2.4,0.1c0.5,2.3,0.8,4.2,1.2,6.2c4.3,0,8.4-0.3,12.3,0.1
		c5.1,0.6,8.7-1.4,12.3-4.8c17.1-16.1,34.5-31.9,51.7-47.8c8.5-7.9,17.1-15.8,25.8-23.9c-11.1-12.2-21.9-24-32.7-35.7
		c-0.8-0.8-2.5-1.4-3.5-1.2c-12.5,2.8-26.4-0.4-37.6,8.5c1.9-2,3.7-4,5.7-6.1c-1.7-2.8-3.1-5.5-4.9-7.9c-3.4-4.5-7.1-8.8-10.4-13.4
		c-3.4-4.8-7-5.8-12.4-2.9c-4.6,2.5-9.9,3.8-14.9,5.5c-2.9,1-5.9,1.9-9.2,2.9c2.3,5.3,1.9,9.6-2.4,13c-4.4,3.5-8.7,1.3-12.8-0.7
		c-3.9,16.6,1.8,31.3,15.2,39.1c1.8,1,4.3,0.9,6.4,1.2c-0.3,0.8-0.8,1.6-0.7,2.3c1.9,11.8,3.8,23.5,5.8,35.6
		c5.1-0.8,9.7-1.7,14.2-2.3c5-0.6,9.5,0.4,12.8,4.5c-8.7-5.4-17.5-2.8-26.8-0.5c1.6,9,3.2,17.7,4.8,26.2c4.2-6.1,7.9-11.5,12.1-17.6
		c-4,2.2-7.2,4.1-10.5,5.9c2.8-3.1,5.9-6.2,9.5-7.1c3.2-0.8,7.1,0.7,10.8,1.2C709,531.4,709,528.7,709,525.9z M527.7,524.7
		c0.7,0,1.5,0,2.2,0c0.2-1.8,1.3-4.2,0.5-5.4c-12.6-20.9-13.6-43.1-7.2-66c4.6-16.6,13.2-30.9,26.5-41.9c6.2-5.1,13.4-9.1,20.3-13.4
		c3.4-2.1,3.5-1.9,1-5.5c-27.1,13.9-47.4,33.4-53.6,64.7C512.7,481.1,514.7,503.8,527.7,524.7z M487.8,512.1
		c25.4-28,33.7-59.9,25.2-96.5c-5.1,1.5-3.1,5-2.7,7.6c4.6,26.3-1.4,50.3-16.8,71.8c-5.3,7.3-11.7,13.9-17.9,21.3
		c14.4-2.3,28.3-4.6,42.3-6.9c-0.1-0.8-0.2-1.6-0.4-2.4C507.6,508.7,497.7,510.4,487.8,512.1z M576.4,413.6
		c-34.5,10.9-54.3,72.1-31.2,95.1c0.4-2,0.6-4-0.2-5.7c-8.2-19.1-8.8-38.1,1.3-56.7c6.3-11.7,15.3-20.8,26.2-28.3
		C574.1,416.9,575.2,415.1,576.4,413.6z M560.4,515c-1.3,1.7-2.3,3-3.3,4.3c5.2,5.8,10.1,11.3,15.1,16.8c1.7-0.9,2.9-1.6,4.5-2.4
		c0.8,2.4,1.6,4.5,2.5,7.1c2.3-2,4.2-3.7,6.3-5.6c-2.4-1.3-4.2-2.3-6.1-3.4c1.1-1.8,1.9-3.1,2.8-4.5c-5.2-5.7-10.2-11.2-15.2-16.7
		c-1.6,0.7-2.9,1.2-4.4,1.8c-0.7-2.3-1.3-4.3-2.1-6.7c-2.3,2.1-4.3,3.9-6.5,6C556.4,512.9,558.1,513.8,560.4,515z M769.3,488.8
		c-0.2-5.7-1.3-9.1-5.6-10.3c-4.4-1.2-8.4-0.7-10.8,3.7c-1.3,2.5-2.7,5.2-2.8,7.9c-0.4,5.8-3.4,7.7-8.7,7.1
		c-4.7-0.5-6.5,1.5-6.6,6.2c-0.1,4.8-1.5,8.7-7.8,8.2c-2.2-0.2-4.5,0.9-6.7,1.8c-4.3,1.6-6.9,4.5-6.4,9.5c0.4,4.3,2.2,7.1,6.7,8.1
		c4.9,1,8.7-0.7,10.7-5.1c1.6-3.3,2.1-7,3.5-10.3c0.6-1.5,2.2-3,3.6-3.6c2.1-0.8,4.6-0.6,6.8-1.2c1.2-0.3,3.2-1.5,3.2-2.3
		c0-8.5,4.9-11.6,12.5-12.2c1.4-0.1,3.1-0.8,4-1.8C767,492.4,768.5,489.9,769.3,488.8z M461.1,554.5c20.9-3.5,41.6-7,62.6-10.6
		c-0.4-2.5-0.7-4.2-1-5.9c-0.7-0.1-1-0.3-1.3-0.2c-19.5,3.6-38.9,7.1-58.3,10.7C459.9,549.1,459.6,551.1,461.1,554.5z M615.4,508.2
		c20.5-3.7,40.3-7.4,60.6-11c-0.5-2.1-0.9-3.6-1.2-5c-20.1,3.4-39.7,6.8-59.4,10.2C615.4,504.2,615.4,505.8,615.4,508.2z
		 M470.5,497.8c19-13.6,28.9-48.5,23.8-67.7c-1,1.7-2,3.6-1.9,5.4c0.7,21.3-4.5,40.5-19.8,56.2C471.6,492.8,471.5,494.9,470.5,497.8
		z M632.9,558.9c4.6,1.7,6.2,0.2,8.1-2.5c5.8-8.2,12.2-16.1,18.3-24.1c0.7-0.9,1.5-1.8,3.1-3.6c-14.3,2.5-27.4,4.8-40.4,7.1
		c0.1,0.6,0.2,1.1,0.3,1.7c9.6-1.7,19.1-3.4,28.8-5.2C644.8,541.3,639,549.8,632.9,558.9z M525.6,530.4c-0.4-0.5-0.7-0.9-1.1-1.4
		c-21.8,4.2-43.7,8.4-65.5,12.6c0.1,0.6,0.2,1.2,0.2,1.8c0.9,0.1,1.8,0.5,2.7,0.3c19.9-3.5,39.9-7,59.8-10.7
		C523.1,532.8,524.3,531.3,525.6,530.4z M677,504.2c-0.1-0.7-0.2-1.3-0.3-2c-1.1,0-2.3-0.2-3.4,0c-18.8,3.3-37.7,6.6-56.5,10.1
		c-1.4,0.3-2.6,2-3.8,3c0.3,0.4,0.6,0.8,0.8,1.2C634.9,512.2,656.1,509.2,677,504.2z M585.7,450.6c10.2-8.7,20.2-17.3,30.6-26.2
		c-1.6-1.2-3-2.3-4.5-3.4c-5.3,4.6-10.3,8.9-15.4,13.2c-5,4.3-9.9,8.5-15.2,13C583,448.7,584.2,449.6,585.7,450.6z M672.5,398.5
		c-0.1-0.7-0.2-1.4-0.2-2.1c-1.3,0.1-2.8-0.1-4,0.3c-5.6,1.5-11.2,2.9-16.6,4.7c-4.9,1.7-10.1,3.3-14.4,6c-3.6,2.3-2.7,7.8,0.9,10.9
		c2.6,2.2,7.7,1.6,9.6-1.6c0.8-1.4,0.7-4-0.1-5.4c-0.7-1.1-3.1-1.8-4.7-1.7c-1,0-2.5,1.7-2.7,2.9c-0.1,0.8,1.5,1.9,2.8,3.5
		c0.6-2.1,1-3.3,1.3-4.4c0.4,0,0.9,0.1,1.3,0.1c-0.1,1.5,0.4,4-0.4,4.4c-1.2,0.8-3.6,0.9-4.8,0.1c-1.3-0.8-2.8-3.3-2.4-4.2
		c0.8-1.9,2.6-4.1,4.5-4.7c5.5-1.9,11.2-3,16.8-4.6C663.8,401.3,668.1,399.9,672.5,398.5z M684.9,408.2c-0.1-0.8-0.2-1.5-0.3-2.3
		c-1.4,0.1-2.9-0.1-4.2,0.3c-5.1,1.5-10.1,3.1-15,5c-5.8,2.3-11.8,4.5-16.8,8c-1.8,1.3-1.5,6.3-1.1,9.5c0.1,1.2,3.2,2.8,5,2.9
		c3.4,0.2,6.5-1,8-4.7c1.2-2.9,0.2-4.7-2.6-5.9c-2.7-1.2-5.3-1.4-6.9,1.6c-0.5,1-0.2,3,0.4,4c0.5,0.8,2.3,1.4,3.4,1.3
		c0.7-0.1,1.2-1.6,1.9-2.5c-0.3-0.3-0.6-0.5-0.9-0.8c-1.1,0.5-2.1,1-3.2,1.5c-0.2-0.3-0.5-0.7-0.7-1c1.1-0.9,2.1-2.4,3.4-2.6
		c0.9-0.2,3,1.1,3.1,2c0.2,1.4-0.5,4.1-1.3,4.3c-2.1,0.5-4.9,0.8-6.5-0.2c-2.7-1.6-3.5-5-1-7.3c2.5-2.2,5.8-3.9,9-4.9
		C667.2,413.3,676.1,410.8,684.9,408.2z M528.4,526.5c-1.8-1.6-2.5-2.4-3.2-2.6c-0.9-0.3-2,0-2.9,0.1c-14.2,2.6-28.4,5.1-42.6,7.8
		c-1.4,0.3-2.5,1.8-3.7,2.8c1.4,0.3,2.8,1,4.2,0.9c3-0.3,5.9-1,8.8-1.6C501.6,531.5,514.2,529.2,528.4,526.5z M576.4,433
		c-22.4,12.5-29.1,41.6-19.5,60.4c-0.3-7.4-2.2-14.9-1.4-22.1c0.7-7.2,3.1-14.7,6.7-21.1C565.7,443.8,571.5,438.7,576.4,433z
		 M611.7,520.1c-0.7,0.2-1.5,0.3-2.2,0.5c-0.1,1.8-1.1,4.1-0.3,5.4c6.1,9.6,9.5,20,11,31.2c0.1,1,1.6,1.9,2.5,2.8
		c0.4-1.1,1.3-2.3,1.1-3.2c-1.3-7-2.4-14.1-4.5-20.8C617.5,530.3,614.3,525.3,611.7,520.1z M612.3,518.8c0,0.5-0.1,1-0.1,1.6
		c1.5,0.3,3.1,1,4.5,0.8c13.6-2.3,27.1-4.7,40.7-7.3c1.2-0.2,2.2-1.5,3.2-2.3c-1.3-0.4-2.8-1.3-4-1.1c-8.7,1.4-17.3,3-26,4.7
		C624.5,516.3,618.4,517.6,612.3,518.8z M611,440.6c-0.5,0.4-0.9,0.8-1.4,1.3c0.1,0.4,0.1,1,0.4,1.3c12.8,14.4,25.7,28.7,38.6,43
		c0.8,0.9,2.3,1.3,3.5,1.9c0.2-0.3,0.3-0.6,0.5-0.9C638.7,471.6,624.8,456.1,611,440.6z M663.7,486.5c0.5-0.5,1-1,1.5-1.4
		c-15.4-17.1-30.8-34.2-46.2-51.3c-0.5,0.4-1,0.9-1.4,1.3C632.9,452.2,648.3,469.3,663.7,486.5z M637.1,419.8
		c-0.7-0.1-1.5-0.5-2.2-0.4c-4.4,0.7-8.8,2.1-13.2,2.1c-2.2,0-5.1-2-6.4-4c-0.8-1.2,0.4-4.3,1.6-5.9c0.7-0.9,3.4-0.8,4.8-0.2
		c1,0.4,2,2.4,1.8,3.5c-0.2,1.1-1.8,2-2.8,2.8c-0.2,0.1-1-0.6-1.7-1c1.1-0.8,2-1.4,4.1-2.7c-2.3-0.5-4-1.4-4.5-1
		c-0.9,0.8-1.8,2.7-1.4,3.7c0.5,1.3,2.3,3,3.3,2.8c1.9-0.3,4.4-1.5,5.1-3c0.7-1.5,0.3-4.7-0.8-5.8c-1.5-1.5-4.6-2.7-6.4-2.1
		c-2.3,0.8-5.2,3.3-5.6,5.5c-0.4,2.4,1.2,6.2,3.2,7.5C623,426.2,630.2,424.2,637.1,419.8z M650.2,434.9c-0.1-0.4-0.1-0.8-0.2-1.3
		c-0.9-0.1-2-0.4-2.8-0.1c-3.3,1.2-6.4,2.6-9.7,3.8c-3.8,1.4-8.6-1.4-8.3-5.2c0.1-1.4,1.6-3.2,2.9-4c0.8-0.5,3.2,0.4,3.7,1.3
		c0.6,1-0.2,2.8-0.5,5.3c-1.2-2.5-1.7-3.6-2.3-4.7c-0.6,0.3-1.6,0.7-1.6,0.8c0.4,1.3,0.8,3.6,1.5,3.7c1.8,0.2,5-0.1,5.2-0.9
		c0.6-2,0.7-5.9-0.4-6.5c-2.3-1.2-5.9-1.8-8.1-0.7c-1.8,0.9-3.4,4.6-3.2,6.8c0.5,4.7,6.2,7.8,11.2,6.4
		C642,438.5,646.1,436.5,650.2,434.9z M575.2,438.6c-13.6,8.4-22.9,31.7-15.6,48c0.7-8.1-0.1-17.3,2.5-25.4
		C564.7,453,570.7,446,575.2,438.6z M610.8,470.2c-0.7,0.9-2,2.4-2.9,4.1c-0.1,0.2,1.5,2,1.8,1.9c1.8-0.8,3.4-2,5-3.1
		c-0.2,0.4-0.3,0.8-0.5,1.2c2.2,0.7,4.3,1.3,6.5,2c-0.6-2.2-1.3-4.4-1.8-6.5c0.9-1.3,2.1-2.8,2.9-4.6c0.2-0.3-1.4-2.1-1.7-2
		c-1.8,0.7-3.5,1.7-4.4,2.2c-2.4-0.9-4.5-1.7-6.6-2.5C609.7,465.4,610.2,467.7,610.8,470.2z M659.5,432.4c-4.6,2.7-5.6,7-2.9,10.7
		c2.4,3.2,5.9,3.8,9.4,2.3c3.5-1.4,5.3-4.7,3.9-8.1c-0.7-1.8-3.9-3-6.2-3.4c-1.3-0.2-3.6,1.8-4.1,3.2c-0.4,1.1,1.2,3.5,2.5,4.1
		c1.1,0.5,3-0.7,5.8-1.6c-2.4-1.6-3.4-2.3-4.4-3c0.3-0.4,0.5-0.9,0.8-1.3c1.4,0.9,3.7,1.7,3.8,2.7c0.2,1.6-0.9,4.5-2,4.8
		c-2,0.5-4.9,0.2-6.6-0.9C655.7,439.3,657.1,435.8,659.5,432.4z M699.4,420.6c-0.2-0.4-0.3-0.8-0.5-1.3
		c-11.2,3.7-22.5,7.5-34.9,11.6C669.6,432.6,692.7,425.3,699.4,420.6z M600.7,409.1c-0.1-0.5-0.2-1.1-0.3-1.6
		c-1.3,0.3-3.1,0.1-3.9,0.8c-6.1,6-14.3,10-18.7,17.5c0.5,0.5,1,1,1.4,1.4C586.5,421.2,593.6,415.2,600.7,409.1z M602.5,560.1
		c0.6-0.4,1.3-0.8,1.9-1.3c-2.1-6.2-4-12.5-6.3-18.7c-0.3-0.9-1.9-1.4-3-2.1c-0.2,1.1-0.8,2.4-0.5,3.4c1.7,5.4,3.6,10.7,5.6,16
		C600.6,558.4,601.7,559.2,602.5,560.1z M660.7,429.3c0.2,0.2,0.5,0.5,0.7,0.7c11.6-4,23.1-8.1,34.7-12.1c-0.1-0.6-0.2-1.1-0.4-1.7
		c-1.2,0.1-2.5-0.1-3.5,0.3c-8.8,3.1-17.6,6.1-26.3,9.4C664,426.5,662.4,428.1,660.7,429.3z M652.7,460.7c0.3-6,0.6-10.6,0.8-15.5
		c-3.7,1.5-7,2.8-10.9,4.4C646,453.3,649,456.6,652.7,460.7z M680.8,404.5c-0.2-0.7-0.4-1.5-0.6-2.2c-9.4,2.8-18.7,5.7-28.1,8.6
		c-0.7,0.2-1,1.4-2.2,3.2C661.1,410.5,670.9,407.5,680.8,404.5z M662,423c6.6,1,26.7-6.1,30.9-11.2C682.1,415.7,672.6,419.1,662,423
		z M688.6,410.8c-0.2-0.6-0.4-1.1-0.6-1.7c-9.7,3.2-19.4,6.3-29.1,9.5C669.8,419.6,679,414.3,688.6,410.8z M470.7,450.7
		c-0.1,0.3-0.2,0.6-0.3,0.9c2.4,0.5,4.9,0.7,7.1,1.6c1.2,0.5,2,2.1,3,3.1c-1.3,0.5-2.6,1.4-3.8,1.3c-3.1-0.3-6.2-1.1-9.2-1.6
		c-0.1,0.4-0.2,0.8-0.3,1.2c4,1,7.9,2.4,11.9,2.7c1.5,0.1,3.2-2.4,4.9-3.7c-1.4-1.3-2.5-3.3-4.1-3.9
		C477,451.3,473.8,451.1,470.7,450.7z M468.1,465.9c-0.2,0.5-0.3,1-0.5,1.5c3.2,0.9,6.5,2,9.8,2.4c1.1,0.1,3-1.5,3.5-2.7
		c0.4-1-0.5-3.4-1.3-3.8c-3.8-1.6-7.9-2.7-11.9-4c2.4,1.9,5.2,2.5,7.6,3.7c1.1,0.5,1.7,2.3,2.6,3.5c-1.3,0.4-2.6,1.1-3.9,1
		C471.9,467.3,470,466.5,468.1,465.9z M676.7,401.3c-0.2-0.6-0.4-1.2-0.6-1.8c-9.3,2.8-18.5,5.6-27.8,8.4c0.2,0.5,0.3,1.1,0.5,1.6
		C658.1,406.7,667.4,404,676.7,401.3z M485.5,483c9.3,6.7,10.1,6.8,11.9,1.4C493.5,484.3,490.6,478.5,485.5,483z M503.2,437
		c1.3-0.1,2.8,0.1,4-0.3c1.1-0.4,1.8-1.6,2.8-2.5c-1-0.6-1.9-1.6-2.9-1.7c-2.3-0.1-4.7,0-7,0.4c-0.8,0.1-1.4,1.4-2.1,2.1
		c0.8,0.7,1.4,1.6,2.3,1.9C501.1,437.3,502.2,437,503.2,437z M503.5,468.7c0.5-0.4,1.8-0.8,2.3-1.7c0.3-0.6-0.5-2.4-1.1-2.6
		c-2.7-0.8-5.5-1.3-8.3-1.6c-0.7-0.1-1.5,0.9-2.2,1.4c0.6,0.8,1,2,1.8,2.4C498.1,467.4,500.4,467.9,503.5,468.7z M505.8,458.2
		c0.5-0.3,1.6-1,2.7-1.7c-1-0.8-1.9-2-3-2.4c-2.2-0.7-4.5-1.1-6.8-1.2c-0.8,0-1.6,1.1-2.5,1.7c0.6,0.8,1.1,2,1.9,2.2
		C500.4,457.5,502.7,457.7,505.8,458.2z M503.7,447.8c0.1-0.2,0.2-0.5,0.3-0.7c0.7,0,1.4,0.2,1.9,0c1.4-0.7,2.6-1.5,3.9-2.3
		c-1.3-0.6-2.5-1.4-3.8-1.9c-0.6-0.2-1.3-0.3-1.9-0.1c-2.2,0.7-5.8-1.9-6.1,2.3C498,445.9,501.7,446.9,503.7,447.8z M703.6,541.2
		c3.6,0.3,6.2,0.7,8.7,0.6c0.5,0,1.5-2.6,1.4-2.6c-2.2-1.4-4.5-2.6-7.1-4C705.6,537.2,705,538.4,703.6,541.2z M484.5,503
		c-6.9-7-7.9-7.3-10.4-4.1C480.7,506.5,481.4,506.8,484.5,503z M502.6,476.7c-0.1-0.5-0.2-1.1-0.3-1.6c-2.5-0.8-4.9-1.8-7.5-2.4
		c-1.2-0.3-2.5,0.4-3.8,0.6c0.9,1,1.7,2.3,2.8,3c1.4,0.9,3.1,1.6,4.6,1.7C499.7,478.1,501.2,477.2,502.6,476.7z M699.6,544.2
		c1.9,1.1,3.4,2,5,2.9c0.6,0.3,1.4,0.9,1.8,0.7c1.3-0.7,2.5-1.8,3.7-2.7c-2.7-1.6-5.4-3.3-8.2-5C701,541.6,700.5,542.6,699.6,544.2z
		 M659.6,553.8c-3.7-2.6-6.8-4.7-11.4-7.9c0.3,2.6,0,4.8,0.7,5.1C651.9,552.5,654.4,557.4,659.6,553.8z M481.6,441.2
		c-0.2,0.4-0.4,0.9-0.7,1.3c0.6,1.4,1.2,2.7,1.8,4.1c-1.5,0.6-2.9,1.4-4.4,1.6c-1.6,0.2-3.3-0.1-4.9-0.1c2.5,1.4,5.1,1.5,7.6,1.8
		c3.3,0.3,5.5-1.4,5.1-4.4C486,443.8,483.2,442.6,481.6,441.2z M491.5,494.2c-2.3-1.5-4.5-3.2-7-4.6c-0.7-0.4-2,0-3,0.1
		c0.2,1,0.2,2.2,0.7,2.8c1.4,1.4,3.1,2.5,4.6,3.8C489.5,498.5,490.6,497.1,491.5,494.2z M654,540.1c0,0.6,0,1.3,0,1.9
		c2.1,1.6,4.1,3.3,6.3,4.7c0.9,0.6,2.2,0.4,3.4,0.6c-0.3-1.1-0.3-2.4-0.9-3.2c-1.3-1.5-2.7-3-4.4-3.9
		C657.1,539.6,655.4,540.1,654,540.1z M653.5,440.3c-4.8,2.1-8.9,3.9-13.2,5.7C643.7,448.5,652.2,445.1,653.5,440.3z M553.6,444
		c-1.5,1.6-3.2,2.6-3.2,3.7c0,1.1,2,3.4,2.3,3.2c1.6-0.7,2.9-2,4.3-3C556.1,446.9,555.1,445.8,553.6,444z M636.6,443
		c6.7,0.8,15.7-3.7,15.8-7.1C647.5,438.1,642.5,440.3,636.6,443z M563.2,461.6c-0.1,0.8-0.2,1.6-0.3,2.4c1.8,0.9,3.6,2.5,5.4,2.4
		c1.1,0,2-2.7,3-4.2c-0.3-0.5-0.6-1-0.8-1.4C568,461.1,565.6,461.4,563.2,461.6z M698.5,545c-0.6,0.2-1.2,0.3-1.7,0.5
		c0.3,1.5,0.1,3.4,1,4.3c2.2,2.3,4.9,3.6,7.5-0.4C702.8,547.9,700.6,546.4,698.5,545z M468.7,479.4c4,1,6.7-0.1,6.8-3.4
		c0.1-4.2-3.7-4.8-6.9-5.5C473.8,475,473.8,475.2,468.7,479.4z M610.2,415.7c-1.5,1.1-2.5,2-3.6,2.6c-1.3,0.7-2.8,1-4.1,1.7
		c-0.6,0.3-1.4,1.1-1.4,1.7c0,0.5,0.7,1.4,1.3,1.6C605.6,424.1,610.5,419.7,610.2,415.7z M499.7,424.9c0.2,0.5,0.4,0.9,0.6,1.4
		c2.1-0.3,4.2-0.4,6.2-1c0.8-0.2,1.2-1.5,1.9-2.2c-0.9-0.5-2-1.7-2.5-1.5C503.7,422.4,501.7,423.8,499.7,424.9z M514.8,520.8
		c0.7-0.1,1.3-0.2,2-0.3c-0.3-2.6-0.6-5.2-0.9-7.8c-0.5,0-0.9,0-1.4,0c-0.9,1.1-1.8,2.1-2.8,3.3
		C512.7,517.6,513.7,519.2,514.8,520.8z M568.9,470.7c-0.5-0.9-1-1.7-1.4-2.6c-1.7,0.8-3.5,1.6-5.2,2.3c0.6,1.1,1.2,2.2,1.8,3.3
		C565.7,472.8,567.3,471.7,568.9,470.7z M574.3,455.2c-3.3-0.5-5.1-0.8-6.9-0.9c-0.2,0-1,2-0.6,2.4c0.9,1.1,2.2,2.5,3.3,2.4
		C571.2,458.9,572.1,457.2,574.3,455.2z"/>
	<path class="st0" d="M444,360c3.7-5.3,7.4-10.5,10.9-15.9c24.1-36.2,48.3-72.3,72.1-108.6c4.4-6.7,13.9-9.8,22.2-4.5
		c11.4,7.2,22.9,14.2,34.4,21.3c8.8,5.4,17.6,10.8,26.6,16.3c3.6-2.9,7.1-5.7,10.6-8.5c8.2-6.7,16.2-6.2,23.3,1.6
		c18,19.9,36,39.8,54,59.6c1.5,1.7,3.6,2.9,6.3,4.9c0-2.2,93,55.8,94.5,57.3c2.2,2.2,5.2,3.6,7.7,5.5c5.3,4,7.3,9.9,4.5,15.9
		c-3.4,7.4-7.4,14.5-11.4,21.6c-1.6,2.8-1.3,4.6,0.9,7c13.6,14.4,27.1,29,40.6,43.5c1.6,1.7,3.2,3.4,4.7,5.1
		c6.3,7.2,6.3,15.7-0.6,22.3c-18.6,17.9-37.4,35.6-56.1,53.3c-1.1,1-2.8,2-4.2,2c-23.6,0.1-47.2,0.1-72.1,0.1
		c27.6-25.6,54.5-50.5,81.6-75.6C741.7,425.5,689,367.1,636,308.5c-63.9,52.7-128,105.6-192,158.5C444,431.3,444,395.7,444,360z
		 M521.6,277.7c3.7-3.9,3.8-3.8,11.7,1.9c3.7,2.7,0.8,4.7,0,7.4c-2.9-2-5.2-2.6-5.8,1.8c3.5,2.1,7,4.3,11,6.8
		c0.7-1.6,1.8-3.5,1.5-3.7c-3.9-3.1-0.8-6.2,0.1-8.9c3.6-11.2,7.6-22.3,11.5-33.7c-1.8-1.1-3.3-2.1-5.5-3.4
		c-9.1,9.3-18.2,18.6-27.4,27.8c-1,1-2.6,1.4-4,2c-1.3,0.6-2.7,1.1-5.1,2.1c4.9,3.1,8.4,5.2,11.9,7.4c0.6-0.2,1.1-0.5,1.7-0.7
		C522.8,282.4,522.3,280.4,521.6,277.7z M576.9,332.2c0.1,4.1,1.5,7.1,5.1,8.3c3.6,1.2,7-0.7,8.3-4c3-7.4,5.3-15,8.2-23.6
		c-9.2,1.2-16.6,2-24,3.3c-3.8,0.7-6.9,3.2-6.8,7.5c0.1,4.3,3.6,5.6,8.5,6c-3.5,1.6-5.8,2.7-8.4,3.9c1.7,1.8,3.1,3.3,4.5,4.9
		C574.1,336.1,575.5,334.2,576.9,332.2z M502.5,326.1c1-2.8,1.9-5.3,3-8.5c2.6,7.4,6.8,9.6,10.7,6c1.8-1.7,3.5-4.4,3.6-6.8
		c0.5-7.2,0.2-14.4,0.2-22.1c-6.6,2.5-12.1,4.1-17,6.7c-3.3,1.8-6.3,4.7-8.7,7.7c-0.9,1.1-0.4,4.7,0.7,5.7c1.6,1.4,4.3,1.6,6.6,2
		c0.8,0.1,1.7-0.8,2.6-1.3c0.2,0.2,0.3,0.4,0.5,0.7c-2.4,2.2-4.7,4.4-7.3,6.9C499,324,500.7,325,502.5,326.1z M640.3,284.6
		c-0.5,0.7-0.8,1.2-1.1,1.5c-6.5,5.4-13,10.9-19.7,16.2c-5.1,4.1-8.8,4.2-11.9,0.7c-3.3-3.7-2.9-7.1,1.5-12.3
		c0.3-0.3,0.4-0.8,0.6-1.2c-2-3.6-3.9-3-6-0.3c-4.1,5.1-4,12.2,0.4,16.9c5.1,5.3,11.3,5.8,17.4,0.9c7.5-6,14.8-12.2,22.1-18.3
		c4,3.3,4,3.3,6.4-0.2c-3.1-3.5-6.3-7.1-9.6-10.9c-1.3,1.1-2.2,2-3.2,2.9C638.3,282,639.2,283.1,640.3,284.6z"/>
	<path class="st1" d="M716.9,455.1c11.1-8.9,25-5.7,37.6-8.5c1.1-0.2,2.8,0.4,3.5,1.2c10.8,11.7,21.6,23.5,32.7,35.7
		c-8.8,8.1-17.3,16-25.8,23.9c-17.3,15.9-34.6,31.8-51.7,47.8c-3.6,3.4-7.2,5.4-12.3,4.8c-3.9-0.4-8-0.1-12.3-0.1
		c-0.4-2.1-0.8-3.9-1.2-6.2c1-0.1,1.9-0.5,2.4-0.1c4.5,2.7,9,2.8,13.1-0.5c3.4-2.7,8.3-3.8,9.4-9c0.5-2,1.9-3.8,2.7-5.9
		c0.7-2,1.2-4.1,1.5-5.2c4.2-0.5,9.3,0.3,12-1.9c3.5-2.9,6-7.9,7.3-12.4c1.2-4.4,3.3-5.8,7.1-5.6c5.3,0.2,8-2,8.3-7.3
		c0.2-4.3,2.1-6.4,7-7c10.5-1.3,15-7.6,12.2-15.7c-2.6-7.6-12.7-9.7-17.5-3.3c-2.4,3.2-3.7,7.4-4.7,11.3c-0.7,2.7-1.4,4.3-4.4,4
		c-0.7-0.1-1.3,0.1-2,0.2c-7.5,1-7.6,1-8.8,8.7c-0.5,3.4-1.4,5.7-5.4,5.4c-0.8-0.1-1.6,0.3-2.4,0.5c-11.3,2.6-14.1,6.8-12.2,18.2
		c-1.4-0.9-2.7-1.6-3.9-2.3c0,0,0.2,0.2,0.2,0.2c-3.3-4.2-7.9-5.2-12.8-4.5c-4.6,0.6-9.1,1.5-14.2,2.3c-2-12.1-3.9-23.9-5.8-35.6
		c-0.1-0.7,0.5-1.5,0.7-2.3c0,0-0.2,0.2-0.2,0.2c2.9-1.5,5.7-3,8.6-4.5c3.4-1.7,7.2-5.4,10.2-4.8c6.3,1.2,7.8-1.8,9.4-6.6
		c2-6,3.4-12.7,11.3-14.2c0.3-0.1,0.5-0.8,0.8-1.2L716.9,455.1z"/>
	<path class="st1" d="M604.5,408.5c-8.6-3.4-17.2-6.9-25.9-10.1c-2.6-0.9-4-1.9-5-4.7c-2.5-7.5-5.5-14.9-8.5-22.9
		c23.3-19.4,46.9-39,70.9-59c7,7.8,13.7,15.2,20.5,22.8c6.9,7.7,13.8,15.3,20.4,23.3c1.3,1.5,1.8,4.6,1.3,6.5
		c-2.4,8.8-5.1,17.6-8.2,26.2c-0.8,2.3-3.1,4.9-5.3,5.8c-4.8,1.8-9.9,2.7-15,3.5c-5.7,1-10.7,3-14.9,7.3c-2.8,2.9-6.3,4.2-10,1
		c-2.7-2.3-6.1-3-8.6-0.6c-3.9,3.7-7.6,2.6-11.7,0.9C604.4,408.4,604.5,408.5,604.5,408.5z M656.2,341.6c-12,0.9-23.5,1.5-34.8,2.8
		c-6.3,0.7-12.5,2.1-18.5,3.8c-6.5,1.8-11.4,6.1-14.2,12.4c-2.5,5.5-1.6,10.2,2.7,14.6c4.1,4.2,9.3,5.1,14.6,2.7
		c1.5-0.7,3-1.3,4.4-2c0.3,0.6,0.6,1.3,0.9,1.9c-7.5,3.8-15.1,7.6-22.8,11.5c3.3,3.7,6.8,7.6,9.8,10.9c5.7-7.4,11.1-14.3,16.4-21.3
		c0.5,0.4,1,0.8,1.6,1.2c-0.8,1.1-1.6,2.2-2.5,3.3c-4,5.5-4.3,10.8-0.9,15.7c3.9,5.6,8.8,7.2,15.7,4.9c10.8-3.5,15.3-12.4,18-22.3
		c3-10.7,5.1-21.7,7.6-32.5C655,346.8,655.6,344.3,656.2,341.6z"/>
	<path class="st2" d="M677.1,485.9c-2.2-0.4-4.7-0.2-6.4-1.2c-13.4-7.9-19.1-22.6-15.2-39.1c4.2,2,8.4,4.2,12.8,0.7
		c4.3-3.4,4.7-7.7,2.4-13c3.3-1,6.3-1.9,9.2-2.9c5-1.7,10.3-3,14.9-5.5c5.5-3,9-1.9,12.4,2.9c3.3,4.6,7,8.8,10.4,13.4
		c1.8,2.4,3.2,5,4.9,7.9c-2,2.1-3.8,4.1-5.7,6.1c0,0,0.2-0.2,0.2-0.2c-6.9,0.5-9.8,5.3-11.8,11c-0.8,2.4-1.3,4.9-2.5,7
		c-0.8,1.4-2.8,2.5-4.4,2.8c-2.9,0.6-5.8,0.4-8.8,0.6c0,0.5-0.1,0.9-0.1,1.4c-3.6-2.2-7.3-4.4-10.9-6.5c-0.1,0.2-0.2,0.4-0.3,0.7
		c2.2,2.9,4.3,5.8,6.1,8.2c-3,2.5-5.2,4.3-7.4,6.1C676.9,486.1,677.1,485.9,677.1,485.9z M692.8,454.4c7.1,6,9.9-2,15.5-3.7
		c-4.3-3.1-8-5.8-11.7-8.5c0.2-0.4,0.4-0.7,0.6-1.1c4,2.1,8,4.2,11.4,6c-2.3-4.7-10.9-7.9-18.4-6.2c3,4.5,6.1,9.2,9.6,14.5
		C696.9,455,695,454.7,692.8,454.4z M689,473.8c0.3-0.2,0.7-0.4,1-0.6c-1.3-1.4-2.3-3.3-3.8-4.2c-2.9-1.6-6.2-2.4-9.1-4.1
		c-1.5-0.9-2.5-2.7-3.3-4.4c-0.2-0.5,1.6-2.5,1.8-2.4c1.6,0.7,3,1.7,4.4,2.7c-0.3-1.9-1.5-4.2-2.8-4.3c-1.5-0.1-3.9,1.3-4.6,2.7
		c-1.5,2.9-0.9,5.9,2.4,7.6C679.6,469.2,684.3,471.5,689,473.8z M698.8,435c5.2,4.2,11,8.9,16.6,13.4
		C714.3,441.7,706.7,435.8,698.8,435z M698.3,472.9c-2.9-2.4-5.7-4.8-8.4-7C689,469.7,690.6,471.5,698.3,472.9z"/>
	<path class="st2" d="M527.7,524.7c-13-20.9-15-43.6-10.3-67.4c6.2-31.3,26.5-50.8,53.6-64.7c2.5,3.6,2.4,3.3-1,5.5
		c-6.9,4.3-14,8.3-20.3,13.4c-13.3,11-21.9,25.3-26.5,41.9c-6.4,22.9-5.4,45,7.2,66c0.8,1.2-0.3,3.6-0.5,5.4
		C529.2,524.7,528.4,524.7,527.7,524.7z"/>
	<path class="st2" d="M487.8,512.1c9.9-1.7,19.8-3.4,29.8-5.1c0.1,0.8,0.2,1.6,0.4,2.4c-14,2.3-27.9,4.6-42.3,6.9
		c6.3-7.4,12.7-13.9,17.9-21.3c15.4-21.5,21.3-45.5,16.8-71.8c-0.4-2.6-2.4-6,2.7-7.6C521.5,452.2,513.2,484.1,487.8,512.1z"/>
	<path class="st2" d="M576.4,413.6c-1.3,1.5-2.3,3.3-3.8,4.4c-10.9,7.5-19.9,16.7-26.2,28.3c-10.1,18.7-9.5,37.6-1.3,56.7
		c0.7,1.7,0.5,3.7,0.2,5.7C522.2,485.7,541.9,424.5,576.4,413.6z"/>
	<path class="st2" d="M560.4,515c-2.3-1.2-4-2-6.4-3.2c2.2-2,4.1-3.8,6.5-6c0.8,2.4,1.4,4.4,2.1,6.7c1.5-0.6,2.8-1.2,4.4-1.8
		c5,5.4,10,11,15.2,16.7c-0.9,1.4-1.7,2.8-2.8,4.5c1.9,1,3.7,2,6.1,3.4c-2.1,1.9-4,3.5-6.3,5.6c-0.9-2.6-1.7-4.7-2.5-7.1
		c-1.5,0.8-2.8,1.5-4.5,2.4c-5-5.5-9.9-11.1-15.1-16.8C558.2,517.9,559.1,516.7,560.4,515z"/>
	<path class="st2" d="M769.3,488.8c-0.8,1.1-2.3,3.6-4.2,5.6c-0.9,1-2.6,1.7-4,1.8c-7.6,0.6-12.5,3.7-12.5,12.2c0,0.8-2,1.9-3.2,2.3
		c-2.2,0.6-4.7,0.4-6.8,1.2c-1.5,0.6-3,2.1-3.6,3.6c-1.4,3.3-2,7-3.5,10.3c-2.1,4.4-5.8,6.1-10.7,5.1c-4.5-0.9-6.3-3.8-6.7-8.1
		c-0.5-5,2.1-7.8,6.4-9.5c2.2-0.8,4.5-2,6.7-1.8c6.3,0.5,7.8-3.4,7.8-8.2c0.1-4.7,1.9-6.7,6.6-6.2c5.3,0.6,8.3-1.3,8.7-7.1
		c0.2-2.7,1.6-5.4,2.8-7.9c2.3-4.5,6.4-4.9,10.8-3.7C768,479.6,769.1,483.1,769.3,488.8z M737,508.4c9.2,1.6,11.1-0.1,11-9.4
		C738.8,498,737,499.4,737,508.4z M733.2,514.1c-0.6-0.5-1.2-1-1.8-1.6c-3.9,1.2-8.1,1.9-11.6,3.9c-1.8,1-3.3,4.4-2.9,6.5
		c0.3,2.1,2.7,4.8,4.7,5.4c2,0.5,5.7-0.6,6.7-2.3C730.7,522.5,731.7,518.2,733.2,514.1z M751.5,494.2c0.5,0.5,1,1,1.5,1.6
		c3.6-1,7.5-1.4,10.6-3.2c1.9-1.1,3.4-4.6,3.2-6.8c-0.2-1.9-2.9-4.8-4.8-5c-2.2-0.3-5.6,1.3-6.9,3.1
		C753.2,486.8,752.7,490.7,751.5,494.2z"/>
	<path class="st2" d="M461.1,554.5c-1.5-3.4-1.2-5.3,2-5.9c19.4-3.6,38.9-7.2,58.3-10.7c0.3-0.1,0.6,0.1,1.3,0.2
		c0.3,1.6,0.6,3.4,1,5.9C502.7,547.5,482,551,461.1,554.5z"/>
	<path class="st2" d="M709,525.9c0,2.8,0,5.5,0,8.2c-3.7-0.5-7.6-2-10.8-1.2c-3.6,1-6.7,4-9.5,7.1c3.2-1.8,6.5-3.7,10.5-5.9
		c-4.2,6.2-7.9,11.5-12.1,17.6c-1.5-8.5-3.1-17.2-4.8-26.2c9.4-2.3,18.2-4.9,26.8,0.5C709.2,526.1,709,525.9,709,525.9z"/>
	<path class="st2" d="M615.4,508.2c0-2.4,0-4,0-5.9c19.7-3.4,39.3-6.7,59.4-10.2c0.4,1.4,0.7,2.9,1.2,5
		C655.8,500.9,635.9,504.5,615.4,508.2z"/>
	<path class="st2" d="M470.5,497.8c0.9-2.9,1-5,2.1-6.1c15.3-15.7,20.5-34.8,19.8-56.2c-0.1-1.8,1-3.7,1.9-5.4
		C499.5,449.2,489.5,484.1,470.5,497.8z"/>
	<path class="st2" d="M632.9,558.9c6.2-9.1,12-17.6,18.1-26.7c-9.6,1.7-19.2,3.5-28.8,5.2c-0.1-0.6-0.2-1.1-0.3-1.7
		c13.1-2.3,26.1-4.6,40.4-7.1c-1.6,1.8-2.3,2.7-3.1,3.6c-6.1,8-12.5,15.9-18.3,24.1C639.1,559.1,637.5,560.6,632.9,558.9z"/>
	<path class="st2" d="M525.6,530.4c-1.3,0.9-2.4,2.4-3.8,2.7c-19.9,3.7-39.9,7.2-59.8,10.7c-0.9,0.1-1.8-0.2-2.7-0.3
		c-0.1-0.6-0.2-1.2-0.2-1.8c21.8-4.2,43.7-8.4,65.5-12.6C524.9,529.5,525.2,529.9,525.6,530.4z"/>
	<path class="st2" d="M604.4,408.4c0.7,0.8,1.5,1.7,2.5,2.8c-5.4,2.9-7.1,7.7-8.2,13.3c-1.1,5.4-4,9.9-9.4,12.1
		c-1.5,0.6-3.4,0.5-5.6,0.8c-1,2.3-2.4,5.4-3.8,8.5c-0.5,0-1,0-1.5,0c-0.2-1.3-1-2.7-0.6-3.7c3.3-8.8,4.5-19.3,17.3-21.7
		c-1.3,6.2-11.2,5.7-9.3,13.3c5.9-1.6,9.5-5.5,10.4-11.4c0.9-6,4-10.4,8.6-14C604.5,408.5,604.4,408.4,604.4,408.4z"/>
	<path class="st2" d="M677,504.2c-20.9,5-42.2,8-63.2,12.4c-0.3-0.4-0.6-0.8-0.8-1.2c1.3-1,2.4-2.7,3.8-3
		c18.8-3.5,37.6-6.8,56.5-10.1c1.1-0.2,2.2,0,3.4,0C676.8,502.9,676.9,503.6,677,504.2z"/>
	<path class="st2" d="M585.7,450.6c-1.5-1.1-2.6-1.9-4.5-3.3c5.3-4.5,10.2-8.8,15.2-13c5-4.3,10.1-8.6,15.4-13.2
		c1.5,1.1,2.8,2.1,4.5,3.4C605.9,433.3,595.8,441.9,585.7,450.6z"/>
	<path class="st2" d="M672.5,398.5c-4.4,1.4-8.7,2.9-13.2,4.1c-5.6,1.6-11.3,2.7-16.8,4.6c-1.9,0.7-3.7,2.8-4.5,4.7
		c-0.4,1,1.1,3.5,2.4,4.2c1.2,0.7,3.6,0.6,4.8-0.1c0.8-0.5,0.3-2.9,0.4-4.4c-0.4,0-0.9-0.1-1.3-0.1c-0.3,1.1-0.7,2.2-1.3,4.4
		c-1.3-1.5-2.9-2.7-2.8-3.5c0.2-1.1,1.7-2.8,2.7-2.9c1.6-0.1,4,0.5,4.7,1.7c0.8,1.4,0.9,4,0.1,5.4c-2,3.2-7.1,3.8-9.6,1.6
		c-3.6-3.1-4.5-8.6-0.9-10.9c4.3-2.8,9.5-4.4,14.4-6c5.5-1.8,11.1-3.2,16.6-4.7c1.3-0.3,2.7-0.2,4-0.3
		C672.4,397,672.4,397.8,672.5,398.5z"/>
	<path class="st2" d="M684.9,408.2c-8.8,2.6-17.8,5-26.5,7.9c-3.2,1-6.5,2.7-9,4.9c-2.5,2.2-1.7,5.6,1,7.3c1.7,1,4.5,0.8,6.5,0.2
		c0.8-0.2,1.5-2.9,1.3-4.3c-0.1-0.8-2.1-2.1-3.1-2c-1.2,0.2-2.3,1.7-3.4,2.6c0.2,0.3,0.5,0.7,0.7,1c1.1-0.5,2.1-1,3.2-1.5
		c0.3,0.3,0.6,0.5,0.9,0.8c-0.6,0.9-1.2,2.4-1.9,2.5c-1.1,0.1-2.8-0.4-3.4-1.3c-0.7-1-1-3-0.4-4c1.5-3,4.1-2.8,6.9-1.6
		c2.8,1.2,3.7,3,2.6,5.9c-1.5,3.7-4.5,5-8,4.7c-1.8-0.1-4.9-1.7-5-2.9c-0.4-3.2-0.7-8.2,1.1-9.5c5-3.5,11-5.6,16.8-8
		c4.9-2,10-3.5,15-5c1.3-0.4,2.8-0.2,4.2-0.3C684.7,406.7,684.8,407.5,684.9,408.2z"/>
	<path class="st2" d="M528.4,526.5c-14.1,2.6-26.8,5-39.5,7.4c-2.9,0.5-5.9,1.3-8.8,1.6c-1.4,0.1-2.8-0.6-4.2-0.9
		c1.2-1,2.3-2.5,3.7-2.8c14.2-2.7,28.4-5.3,42.6-7.8c1-0.2,2-0.4,2.9-0.1C525.9,524.1,526.5,525,528.4,526.5z"/>
	<path class="st2" d="M576.4,433c-4.9,5.7-10.7,10.8-14.3,17.2c-3.5,6.3-5.9,13.8-6.7,21.1c-0.7,7.2,1.2,14.7,1.4,22.1
		C547.3,474.6,554,445.5,576.4,433z"/>
	<path class="st2" d="M611.7,520.1c2.6,5.2,5.8,10.3,7.6,15.8c2.2,6.7,3.2,13.8,4.5,20.8c0.2,1-0.7,2.2-1.1,3.2
		c-0.9-0.9-2.3-1.8-2.5-2.8c-1.5-11.2-4.9-21.6-11-31.2c-0.8-1.2,0.1-3.6,0.3-5.4C610.2,520.4,611,520.2,611.7,520.1z"/>
	<path class="st2" d="M612.3,518.8c6.1-1.2,12.2-2.5,18.3-3.6c8.6-1.6,17.3-3.2,26-4.7c1.3-0.2,2.7,0.7,4,1.1
		c-1.1,0.8-2.1,2.1-3.2,2.3c-13.5,2.5-27.1,5-40.7,7.3c-1.4,0.2-3-0.5-4.5-0.8C612.2,519.9,612.3,519.3,612.3,518.8z"/>
	<path class="st2" d="M611,440.6c13.9,15.5,27.7,31.1,41.6,46.6c-0.2,0.3-0.3,0.6-0.5,0.9c-1.2-0.6-2.7-1-3.5-1.9
		c-12.9-14.3-25.8-28.6-38.6-43c-0.3-0.3-0.3-0.8-0.4-1.3C610,441.4,610.5,441,611,440.6z"/>
	<path class="st2" d="M663.7,486.5c-15.4-17.1-30.8-34.3-46.1-51.4c0.5-0.4,1-0.9,1.4-1.3c15.4,17.1,30.8,34.2,46.2,51.3
		C664.7,485.5,664.2,486,663.7,486.5z"/>
	<path class="st2" d="M637.1,419.8c-6.9,4.4-14.1,6.4-21.1,1.8c-2-1.3-3.6-5.2-3.2-7.5c0.3-2.1,3.2-4.7,5.6-5.5
		c1.7-0.6,4.9,0.7,6.4,2.1c1.2,1.1,1.6,4.3,0.8,5.8c-0.7,1.5-3.2,2.7-5.1,3c-1,0.2-2.8-1.6-3.3-2.8c-0.4-1,0.5-2.9,1.4-3.7
		c0.5-0.5,2.2,0.4,4.5,1c-2,1.4-2.9,2-4.1,2.7c0.7,0.4,1.6,1.2,1.7,1c1.1-0.8,2.7-1.7,2.8-2.8c0.2-1.1-0.9-3.1-1.8-3.5
		c-1.5-0.5-4.2-0.6-4.8,0.2c-1.2,1.6-2.4,4.8-1.6,5.9c1.3,2,4.2,4,6.4,4c4.4,0,8.8-1.4,13.2-2.1
		C635.6,419.4,636.3,419.7,637.1,419.8z"/>
	<path class="st2" d="M650.2,434.9c-4.1,1.6-8.2,3.5-12.5,4.7c-5,1.4-10.7-1.7-11.2-6.4c-0.2-2.3,1.3-6,3.2-6.8
		c2.2-1.1,5.8-0.5,8.1,0.7c1.1,0.6,1,4.5,0.4,6.5c-0.3,0.8-3.5,1.2-5.2,0.9c-0.7-0.1-1.1-2.4-1.5-3.7c0-0.1,1-0.6,1.6-0.8
		c0.5,1.1,1.1,2.2,2.3,4.7c0.3-2.5,1.1-4.2,0.5-5.3c-0.5-0.9-2.9-1.8-3.7-1.3c-1.3,0.8-2.8,2.5-2.9,4c-0.3,3.8,4.5,6.6,8.3,5.2
		c3.2-1.2,6.4-2.6,9.7-3.8c0.8-0.3,1.8,0.1,2.8,0.1C650.1,434.1,650.2,434.5,650.2,434.9z"/>
	<path class="st2" d="M575.2,438.6c-4.4,7.3-10.4,14.4-13.1,22.6c-2.6,8.1-1.8,17.2-2.5,25.4C552.2,470.3,561.5,447,575.2,438.6z"/>
	<path class="st2" d="M610.8,470.2c-0.6-2.5-1.1-4.8-1.7-7.1c2.1,0.8,4.2,1.6,6.6,2.5c0.9-0.5,2.6-1.5,4.4-2.2
		c0.3-0.1,1.9,1.6,1.7,2c-0.9,1.7-2.1,3.3-2.9,4.6c0.6,2,1.2,4.2,1.8,6.5c-2.2-0.7-4.3-1.3-6.5-2c0.2-0.4,0.3-0.8,0.5-1.2
		c-1.7,1.1-3.3,2.2-5,3.1c-0.3,0.1-2-1.6-1.8-1.9C608.8,472.6,610.1,471.1,610.8,470.2z"/>
	<path class="st2" d="M659.5,432.4c-2.4,3.3-3.8,6.8,0.1,9.6c1.7,1.2,4.6,1.5,6.6,0.9c1.1-0.3,2.1-3.2,2-4.8c-0.1-1-2.5-1.8-3.8-2.7
		c-0.3,0.4-0.5,0.9-0.8,1.3c1,0.7,2,1.3,4.4,3c-2.7,0.8-4.7,2.1-5.8,1.6c-1.3-0.6-2.8-3.1-2.5-4.1c0.5-1.4,2.8-3.4,4.1-3.2
		c2.3,0.3,5.4,1.6,6.2,3.4c1.4,3.4-0.4,6.7-3.9,8.1c-3.5,1.4-7,0.9-9.4-2.3C653.8,439.4,654.9,435.1,659.5,432.4z"/>
	<path class="st2" d="M699.4,420.6c-6.7,4.7-29.8,12.1-35.4,10.4c12.4-4.1,23.7-7.9,34.9-11.6C699.1,419.7,699.2,420.1,699.4,420.6z
		"/>
	<path class="st2" d="M600.7,409.1c-7.1,6.1-14.2,12.1-21.3,18.2c-0.5-0.5-1-1-1.4-1.4c4.4-7.6,12.6-11.6,18.7-17.5
		c0.8-0.8,2.5-0.6,3.9-0.8C600.5,408,600.6,408.5,600.7,409.1z"/>
	<path class="st2" d="M602.5,560.1c-0.8-0.9-1.9-1.6-2.3-2.6c-2-5.3-3.9-10.6-5.6-16c-0.3-1,0.3-2.3,0.5-3.4c1,0.7,2.6,1.1,3,2.1
		c2.2,6.2,4.2,12.5,6.3,18.7C603.8,559.2,603.2,559.6,602.5,560.1z"/>
	<path class="st2" d="M660.7,429.3c1.7-1.2,3.3-2.8,5.2-3.5c8.7-3.3,17.5-6.3,26.3-9.4c1.1-0.4,2.4-0.2,3.5-0.3
		c0.1,0.6,0.2,1.1,0.4,1.7c-11.6,4-23.1,8.1-34.7,12.1C661.1,429.7,660.9,429.5,660.7,429.3z"/>
	<path class="st2" d="M652.7,460.7c-3.7-4.1-6.7-7.4-10.1-11.1c3.9-1.6,7.2-2.9,10.9-4.4C653.3,450.1,653.1,454.7,652.7,460.7z"/>
	<path class="st2" d="M680.8,404.5c-9.8,3-19.7,6.1-30.9,9.6c1.2-1.7,1.5-2.9,2.2-3.2c9.3-2.9,18.7-5.8,28.1-8.6
		C680.4,403,680.6,403.7,680.8,404.5z"/>
	<path class="st2" d="M662,423c10.6-3.8,20.1-7.3,30.9-11.2C688.6,416.9,668.6,424,662,423z"/>
	<path class="st2" d="M688.6,410.8c-9.6,3.5-18.8,8.8-29.7,7.8c9.7-3.2,19.4-6.3,29.1-9.5C688.2,409.7,688.4,410.3,688.6,410.8z"/>
	<path class="st2" d="M470.7,450.7c3.1,0.5,6.3,0.6,9.2,1.6c1.6,0.6,2.8,2.5,4.1,3.9c-1.6,1.3-3.3,3.8-4.9,3.7
		c-4-0.3-8-1.7-11.9-2.7c0.1-0.4,0.2-0.8,0.3-1.2c3.1,0.6,6.1,1.3,9.2,1.6c1.2,0.1,2.5-0.8,3.8-1.3c-1-1.1-1.8-2.7-3-3.1
		c-2.2-0.9-4.7-1.1-7.1-1.6C470.5,451.3,470.6,451,470.7,450.7z"/>
	<path class="st2" d="M468.1,465.9c1.9,0.6,3.9,1.4,5.9,1.6c1.2,0.1,2.6-0.6,3.9-1c-0.8-1.2-1.4-2.9-2.6-3.5
		c-2.5-1.2-5.3-1.8-7.6-3.7c4,1.3,8,2.4,11.9,4c0.9,0.4,1.7,2.8,1.3,3.8c-0.5,1.2-2.4,2.8-3.5,2.7c-3.3-0.4-6.5-1.6-9.8-2.4
		C467.8,466.9,467.9,466.4,468.1,465.9z"/>
	<path class="st2" d="M676.7,401.3c-9.3,2.7-18.6,5.5-28,8.2c-0.2-0.5-0.3-1.1-0.5-1.6c9.3-2.8,18.5-5.6,27.8-8.4
		C676.3,400.1,676.5,400.7,676.7,401.3z"/>
	<path class="st2" d="M485.5,483c5.1-4.5,8.1,1.3,11.9,1.4C495.6,489.8,494.8,489.7,485.5,483z"/>
	<path class="st2" d="M503.2,437c-1,0-2.1,0.2-3-0.1c-0.9-0.3-1.6-1.2-2.3-1.9c0.7-0.7,1.3-1.9,2.1-2.1c2.3-0.4,4.6-0.6,7-0.4
		c1,0.1,2,1.1,2.9,1.7c-0.9,0.8-1.7,2-2.8,2.5C506,437.2,504.5,436.9,503.2,437z"/>
	<path class="st2" d="M503.5,468.7c-3.1-0.8-5.4-1.3-7.5-2.1c-0.8-0.3-1.2-1.5-1.8-2.4c0.7-0.5,1.6-1.5,2.2-1.4
		c2.8,0.3,5.6,0.8,8.3,1.6c0.6,0.2,1.4,2,1.1,2.6C505.3,467.9,504,468.3,503.5,468.7z"/>
	<path class="st2" d="M505.8,458.2c-3.1-0.5-5.5-0.7-7.6-1.4c-0.8-0.2-1.3-1.4-1.9-2.2c0.8-0.6,1.7-1.7,2.5-1.7
		c2.3,0.1,4.6,0.5,6.8,1.2c1.1,0.4,2,1.5,3,2.4C507.4,457.1,506.4,457.8,505.8,458.2z"/>
	<path class="st2" d="M503.7,447.8c-2-0.9-5.7-2-5.7-2.7c0.3-4.2,3.9-1.6,6.1-2.3c0.6-0.2,1.4-0.2,1.9,0.1c1.3,0.5,2.5,1.3,3.8,1.9
		c-1.3,0.8-2.6,1.7-3.9,2.3c-0.5,0.3-1.3,0-1.9,0C503.9,447.4,503.8,447.6,503.7,447.8z"/>
	<path class="st2" d="M703.6,541.2c1.4-2.8,2-4,3-6c2.5,1.4,4.9,2.6,7.1,4c0.1,0.1-0.9,2.6-1.4,2.6
		C709.8,541.9,707.3,541.5,703.6,541.2z"/>
	<path class="st2" d="M484.5,503c-3.1,3.8-3.8,3.5-10.4-4.1C476.6,495.7,477.6,496.1,484.5,503z"/>
	<path class="st2" d="M502.6,476.7c-1.4,0.5-2.8,1.4-4.2,1.3c-1.6-0.1-3.3-0.8-4.6-1.7c-1.1-0.7-1.9-2-2.8-3
		c1.3-0.2,2.7-0.9,3.8-0.6c2.6,0.6,5,1.6,7.5,2.4C502.3,475.6,502.4,476.2,502.6,476.7z"/>
	<path class="st2" d="M699.6,544.2c0.9-1.6,1.4-2.6,2.3-4.1c2.8,1.7,5.5,3.3,8.2,5c-1.2,0.9-2.4,1.9-3.7,2.7
		c-0.4,0.2-1.2-0.4-1.8-0.7C703,546.2,701.4,545.3,699.6,544.2z"/>
	<path class="st2" d="M659.6,553.8c-5.2,3.6-7.6-1.3-10.7-2.8c-0.6-0.3-0.4-2.5-0.7-5.1C652.7,549.1,655.8,551.2,659.6,553.8z"/>
	<path class="st2" d="M481.6,441.2c1.6,1.4,4.4,2.6,4.6,4.2c0.4,2.9-1.8,4.7-5.1,4.4c-2.6-0.3-5.1-0.4-7.6-1.8
		c1.6,0.1,3.3,0.4,4.9,0.1c1.5-0.2,2.9-1.1,4.4-1.6c-0.6-1.4-1.2-2.7-1.8-4.1C481.1,442.1,481.4,441.6,481.6,441.2z"/>
	<path class="st2" d="M491.5,494.2c-0.8,3-2,4.3-4.6,2.1c-1.5-1.3-3.3-2.4-4.6-3.8c-0.6-0.6-0.5-1.9-0.7-2.8c1-0.1,2.2-0.5,3-0.1
		C486.9,491,489.2,492.6,491.5,494.2z"/>
	<path class="st2" d="M654,540.1c1.5,0,3.2-0.5,4.3,0.1c1.7,0.9,3.2,2.4,4.4,3.9c0.7,0.8,0.6,2.1,0.9,3.2c-1.1-0.2-2.5,0-3.4-0.6
		c-2.2-1.4-4.2-3.1-6.3-4.7C654,541.3,654,540.7,654,540.1z"/>
	<path class="st2" d="M653.5,440.3c-1.3,4.8-9.9,8.2-13.2,5.7C644.6,444.1,648.8,442.3,653.5,440.3z"/>
	<path class="st2" d="M636.6,443c5.9-2.6,10.9-4.9,15.8-7.1C652.3,439.2,643.3,443.8,636.6,443z"/>
	<path class="st2" d="M563.2,461.6c2.4-0.2,4.8-0.5,7.2-0.7c0.3,0.5,0.6,1,0.8,1.4c-1,1.5-1.9,4.1-3,4.2c-1.8,0.1-3.6-1.5-5.4-2.4
		C563,463.3,563.1,462.4,563.2,461.6z"/>
	<path class="st2" d="M698.5,545c2.2,1.4,4.4,2.9,6.7,4.4c-2.6,4-5.2,2.7-7.5,0.4c-0.9-0.9-0.7-2.8-1-4.3
		C697.3,545.3,697.9,545.2,698.5,545z"/>
	<path class="st2" d="M468.7,479.4c5.1-4.2,5.1-4.4-0.1-8.9c3.2,0.7,7,1.3,6.9,5.5C475.4,479.3,472.7,480.4,468.7,479.4z"/>
	<path class="st2" d="M610.2,415.7c0.3,4.1-4.6,8.5-7.8,7.5c-0.6-0.2-1.4-1.1-1.3-1.6c0-0.6,0.8-1.3,1.4-1.7c1.3-0.7,2.8-1,4.1-1.7
		C607.7,417.7,608.7,416.8,610.2,415.7z"/>
	<path class="st2" d="M499.7,424.9c2-1.1,4-2.5,6.2-3.3c0.6-0.2,1.7,1,2.5,1.5c-0.6,0.8-1.1,2-1.9,2.2c-2,0.6-4.1,0.7-6.2,1
		C500.1,425.8,499.9,425.4,499.7,424.9z"/>
	<path class="st2" d="M514.8,520.8c-1-1.6-2-3.2-3.1-4.8c1-1.2,1.9-2.2,2.8-3.3c0.5,0,0.9,0,1.4,0c0.3,2.6,0.6,5.2,0.9,7.8
		C516.1,520.6,515.4,520.7,514.8,520.8z"/>
	<path class="st2" d="M568.9,470.7c-1.6,1-3.2,2-4.8,3c-0.6-1.1-1.2-2.2-1.8-3.3c1.7-0.8,3.5-1.6,5.2-2.3
		C568,469,568.5,469.9,568.9,470.7z"/>
	<path class="st2" d="M574.3,455.2c-2.2,2.1-3.1,3.8-4.2,3.9c-1.1,0.1-2.4-1.3-3.3-2.4c-0.3-0.4,0.4-2.4,0.6-2.4
		C569.2,454.3,571,454.7,574.3,455.2z"/>
	<path class="st0" d="M521.6,277.7c0.7,2.8,1.2,4.7,1.7,6.7c-0.6,0.2-1.1,0.5-1.7,0.7c-3.5-2.2-6.9-4.3-11.9-7.4
		c2.4-1,3.7-1.5,5.1-2.1c1.4-0.6,3-1,4-2c9.2-9.2,18.2-18.4,27.4-27.8c2.1,1.3,3.7,2.3,5.5,3.4c-3.9,11.4-7.9,22.5-11.5,33.7
		c-0.9,2.8-4,5.8-0.1,8.9c0.3,0.2-0.9,2.1-1.5,3.7c-4-2.5-7.5-4.6-11-6.8c0.6-4.5,2.9-3.8,5.8-1.8c0.8-2.7,3.7-4.7,0-7.4
		C525.4,273.9,525.3,273.7,521.6,277.7z M544.1,256.7c-5,4.9-10,9.7-15.2,14.7c2.7,1.6,5.3,3.3,8.4,5.2
		C539.7,269.4,541.9,263,544.1,256.7z"/>
	<path class="st0" d="M576.9,332.2c-1.4,2-2.8,4-4.5,6.4c-1.5-1.6-2.9-3.1-4.5-4.9c2.6-1.2,5-2.3,8.4-3.9c-5-0.4-8.4-1.8-8.5-6
		c-0.1-4.3,3-6.8,6.8-7.5c7.3-1.3,14.8-2.1,24-3.3c-2.9,8.6-5.2,16.3-8.2,23.6c-1.3,3.3-4.6,5.1-8.3,4
		C578.5,339.3,577.1,336.3,576.9,332.2z"/>
	<path class="st0" d="M502.5,326.1c-1.8-1.1-3.5-2.1-5.3-3.2c2.6-2.5,5-4.7,7.3-6.9c-0.2-0.2-0.3-0.4-0.5-0.7
		c-0.9,0.5-1.8,1.4-2.6,1.3c-2.3-0.4-5.1-0.6-6.6-2c-1.1-1-1.6-4.6-0.7-5.7c2.4-3,5.3-5.9,8.7-7.7c4.9-2.6,10.4-4.2,17-6.7
		c0,7.8,0.3,15-0.2,22.1c-0.2,2.4-1.8,5.1-3.6,6.8c-3.8,3.7-8.1,1.5-10.7-6C504.4,320.8,503.5,323.3,502.5,326.1z"/>
	<path class="st0" d="M640.3,284.6c-1.1-1.5-2-2.6-3.1-4c1-0.9,1.9-1.7,3.2-2.9c3.3,3.8,6.5,7.3,9.6,10.9c-2.5,3.5-2.5,3.5-6.4,0.2
		c-7.3,6.1-14.6,12.3-22.1,18.3c-6,4.9-12.3,4.5-17.4-0.9c-4.4-4.7-4.6-11.8-0.4-16.9c2.2-2.7,4.1-3.3,6,0.3
		c-0.2,0.3-0.3,0.8-0.6,1.2c-4.4,5.1-4.8,8.6-1.5,12.3c3.1,3.5,6.8,3.4,11.9-0.7c6.6-5.3,13.1-10.8,19.7-16.2
		C639.5,285.8,639.8,285.3,640.3,284.6z"/>
	<path class="st0" d="M676.9,486.1c2.2-1.8,4.4-3.6,7.4-6.1c-1.8-2.4-3.9-5.3-6.1-8.2c0.1-0.2,0.2-0.4,0.3-0.7
		c3.6,2.2,7.3,4.4,10.9,6.5c0-0.5,0.1-0.9,0.1-1.4c2.9-0.2,5.9,0,8.8-0.6c1.6-0.3,3.6-1.4,4.4-2.8c1.3-2.1,1.7-4.6,2.5-7
		c2-5.8,4.9-10.5,11.8-11c-0.2,0.4-0.4,1.1-0.8,1.2c-7.9,1.4-9.3,8.1-11.3,14.2c-1.6,4.7-3,7.7-9.4,6.6c-3-0.6-6.8,3.1-10.2,4.8
		C682.6,483.1,679.8,484.6,676.9,486.1z"/>
	<path class="st0" d="M656.2,341.6c-0.6,2.7-1.3,5.2-1.8,7.7c-2.5,10.9-4.6,21.8-7.6,32.5c-2.7,9.8-7.3,18.7-18,22.3
		c-7,2.3-11.8,0.7-15.7-4.9c-3.4-4.9-3.1-10.3,0.9-15.7c0.8-1.1,1.6-2.2,2.5-3.3c-0.5-0.4-1-0.8-1.6-1.2
		c-5.4,6.9-10.7,13.9-16.4,21.3c-3-3.3-6.5-7.3-9.8-10.9c7.7-3.9,15.2-7.7,22.8-11.5c-0.3-0.6-0.6-1.3-0.9-1.9c-1.5,0.7-3,1.4-4.4,2
		c-5.4,2.4-10.5,1.5-14.6-2.7c-4.3-4.4-5.3-9-2.7-14.6c2.8-6.3,7.7-10.6,14.2-12.4c6.1-1.7,12.3-3.1,18.5-3.8
		C632.8,343.1,644.2,342.5,656.2,341.6z"/>
	<path class="st0" d="M692.8,454.4c2.2,0.3,4.1,0.6,6.9,0.9c-3.5-5.3-6.6-9.9-9.6-14.5c7.6-1.6,16.1,1.5,18.4,6.2
		c-3.4-1.8-7.4-3.9-11.4-6c-0.2,0.4-0.4,0.7-0.6,1.1c3.7,2.7,7.4,5.4,11.7,8.5C702.7,452.4,699.9,460.5,692.8,454.4z"/>
	<path class="st0" d="M689,473.8c-4.7-2.3-9.4-4.6-14-7c-3.3-1.7-3.9-4.7-2.4-7.6c0.7-1.4,3.1-2.8,4.6-2.7c1.3,0.1,2.5,2.4,2.8,4.3
		c-1.5-0.9-2.9-2-4.4-2.7c-0.2-0.1-2,2-1.8,2.4c0.8,1.6,1.8,3.5,3.3,4.4c2.8,1.7,6.2,2.5,9.1,4.1c1.6,0.9,2.6,2.8,3.8,4.2
		C689.6,473.4,689.3,473.6,689,473.8z"/>
	<path class="st0" d="M698.8,435c7.9,0.7,15.6,6.7,16.6,13.4C709.8,444,704,439.2,698.8,435z"/>
	<path class="st0" d="M698.3,472.9c-7.8-1.5-9.3-3.2-8.4-7C692.6,468.2,695.5,470.6,698.3,472.9z"/>
	<path class="st0" d="M737,508.4c0-8.9,1.8-10.4,11-9.4C748.1,508.3,746.3,510,737,508.4z"/>
	<path class="st0" d="M733.2,514.1c-1.5,4-2.6,8.4-4.9,12c-1,1.6-4.8,2.8-6.7,2.3c-2-0.5-4.4-3.3-4.7-5.4c-0.3-2.1,1.2-5.5,2.9-6.5
		c3.5-2,7.7-2.7,11.6-3.9C732,513.1,732.6,513.6,733.2,514.1z M729.7,515.8c-7.2,0.5-11.9,3.1-11,6.3c0.5,1.8,2.6,3.9,4.4,4.3
		C726.6,527.3,729,523.2,729.7,515.8z"/>
	<path class="st0" d="M751.5,494.2c1.1-3.5,1.7-7.4,3.6-10.4c1.2-1.9,4.7-3.4,6.9-3.1c1.9,0.2,4.6,3.1,4.8,5
		c0.2,2.2-1.3,5.7-3.2,6.8c-3.1,1.8-7,2.2-10.6,3.2C752.6,495.2,752,494.7,751.5,494.2z M754.5,492.5c6.8,0.1,10.6-1.7,10.3-5.3
		c-0.2-1.7-2-4.2-3.6-4.7C757.9,481.4,755.5,485.1,754.5,492.5z"/>
	<path class="st0" d="M544.1,256.7c-2.2,6.3-4.4,12.8-6.8,19.9c-3.1-1.9-5.7-3.5-8.4-5.2C534.1,266.4,539.1,261.5,544.1,256.7z"/>
	<path d="M729.7,515.8c-0.7,7.4-3.1,11.5-6.6,10.6c-1.8-0.5-3.9-2.5-4.4-4.3C717.8,518.9,722.5,516.3,729.7,515.8z"/>
	<path d="M754.5,492.5c1-7.4,3.4-11.1,6.7-10c1.6,0.5,3.4,3,3.6,4.7C765.1,490.8,761.3,492.6,754.5,492.5z"/>
</g>
<line class="st3" x1="698.2" y1="321.3" x2="800.7" y2="433.5"/>
<line class="st3" x1="609.2" y1="269.4" x2="444" y2="423.9"/>
</svg>
